# xmcd CD database file
#
# Track frame offsets:
#	182
#	15545
#	32497
#	58280
#	74857
#	101382
#	116290
#
# Disc length: 1737 seconds
#
# Revision: 0
# Processed by: cddbd v1.4PL0 Copyright (c) Steve Scherf et al.
# Submitted via: CDex 1.50
#
DISCID=5906c707
DTITLE=Blues Hangover - Roadrunner
DYEAR=1996
DGENRE=Blues
TTITLE0=Roadrunner
TTITLE1=Don't You Lie To Me
TTITLE2=I Sing The Blues
TTITLE3=Keep A Knockin'
TTITLE4=I'm Mad Again - Serve You Right To Suffer
TTITLE5=Why Are Peaople Like That
TTITLE6=Too Much Monkey Business
EXTD=YEAR: 1996
EXTT0=
EXTT1=
EXTT2=
EXTT3=
EXTT4=
EXTT5=
EXTT6=
PLAYORDER=
